<mxfile host="app.diagrams.net" modified="2023-05-26T15:45:36.335Z" agent="Mozilla/5.0 (Windows NT 10.0; Win64; x64) AppleWebKit/537.36 (KHTML, like Gecko) Chrome/113.0.0.0 Safari/537.36" etag="wMgGk_bMf-pCjY250OMi" version="21.3.4" type="github">
  <diagram name="第 1 页" id="BS55fAX_0yIunO1MEFvd">
    <mxGraphModel dx="875" dy="458" grid="0" gridSize="10" guides="1" tooltips="1" connect="1" arrows="1" fold="1" page="1" pageScale="1" pageWidth="827" pageHeight="1169" math="0" shadow="0">
      <root>
        <mxCell id="0" />
        <mxCell id="1" parent="0" />
        <mxCell id="YXdHH71PyHcni8ouAXbK-17" style="edgeStyle=orthogonalEdgeStyle;rounded=0;orthogonalLoop=1;jettySize=auto;html=1;exitX=0.5;exitY=1;exitDx=0;exitDy=0;entryX=0.478;entryY=0.001;entryDx=0;entryDy=0;entryPerimeter=0;" edge="1" parent="1" source="YXdHH71PyHcni8ouAXbK-1" target="YXdHH71PyHcni8ouAXbK-3">
          <mxGeometry relative="1" as="geometry" />
        </mxCell>
        <mxCell id="YXdHH71PyHcni8ouAXbK-19" style="edgeStyle=orthogonalEdgeStyle;rounded=0;orthogonalLoop=1;jettySize=auto;html=1;exitX=0.5;exitY=1;exitDx=0;exitDy=0;" edge="1" parent="1" source="YXdHH71PyHcni8ouAXbK-1" target="YXdHH71PyHcni8ouAXbK-2">
          <mxGeometry relative="1" as="geometry" />
        </mxCell>
        <mxCell id="YXdHH71PyHcni8ouAXbK-1" value="前后端设计" style="rounded=0;whiteSpace=wrap;html=1;" vertex="1" parent="1">
          <mxGeometry x="354" y="120" width="120" height="60" as="geometry" />
        </mxCell>
        <mxCell id="YXdHH71PyHcni8ouAXbK-23" style="edgeStyle=orthogonalEdgeStyle;rounded=0;orthogonalLoop=1;jettySize=auto;html=1;exitX=0.5;exitY=1;exitDx=0;exitDy=0;entryX=0.5;entryY=0;entryDx=0;entryDy=0;" edge="1" parent="1" source="YXdHH71PyHcni8ouAXbK-2" target="YXdHH71PyHcni8ouAXbK-12">
          <mxGeometry relative="1" as="geometry" />
        </mxCell>
        <mxCell id="YXdHH71PyHcni8ouAXbK-24" style="edgeStyle=orthogonalEdgeStyle;rounded=0;orthogonalLoop=1;jettySize=auto;html=1;exitX=0.5;exitY=1;exitDx=0;exitDy=0;entryX=0.5;entryY=0;entryDx=0;entryDy=0;" edge="1" parent="1" source="YXdHH71PyHcni8ouAXbK-2" target="YXdHH71PyHcni8ouAXbK-14">
          <mxGeometry relative="1" as="geometry" />
        </mxCell>
        <mxCell id="YXdHH71PyHcni8ouAXbK-25" style="edgeStyle=orthogonalEdgeStyle;rounded=0;orthogonalLoop=1;jettySize=auto;html=1;exitX=0.5;exitY=1;exitDx=0;exitDy=0;entryX=0.5;entryY=0;entryDx=0;entryDy=0;" edge="1" parent="1" source="YXdHH71PyHcni8ouAXbK-2" target="YXdHH71PyHcni8ouAXbK-13">
          <mxGeometry relative="1" as="geometry" />
        </mxCell>
        <mxCell id="YXdHH71PyHcni8ouAXbK-2" value="后端设计" style="rounded=0;whiteSpace=wrap;html=1;" vertex="1" parent="1">
          <mxGeometry x="550" y="230" width="120" height="60" as="geometry" />
        </mxCell>
        <mxCell id="YXdHH71PyHcni8ouAXbK-20" style="edgeStyle=orthogonalEdgeStyle;rounded=0;orthogonalLoop=1;jettySize=auto;html=1;exitX=0.5;exitY=1;exitDx=0;exitDy=0;entryX=0.5;entryY=0;entryDx=0;entryDy=0;" edge="1" parent="1" source="YXdHH71PyHcni8ouAXbK-3" target="YXdHH71PyHcni8ouAXbK-6">
          <mxGeometry relative="1" as="geometry" />
        </mxCell>
        <mxCell id="YXdHH71PyHcni8ouAXbK-21" style="edgeStyle=orthogonalEdgeStyle;rounded=0;orthogonalLoop=1;jettySize=auto;html=1;exitX=0.5;exitY=1;exitDx=0;exitDy=0;entryX=0.5;entryY=0;entryDx=0;entryDy=0;" edge="1" parent="1" source="YXdHH71PyHcni8ouAXbK-3" target="YXdHH71PyHcni8ouAXbK-8">
          <mxGeometry relative="1" as="geometry" />
        </mxCell>
        <mxCell id="YXdHH71PyHcni8ouAXbK-22" style="edgeStyle=orthogonalEdgeStyle;rounded=0;orthogonalLoop=1;jettySize=auto;html=1;exitX=0.5;exitY=1;exitDx=0;exitDy=0;" edge="1" parent="1" source="YXdHH71PyHcni8ouAXbK-3" target="YXdHH71PyHcni8ouAXbK-9">
          <mxGeometry relative="1" as="geometry" />
        </mxCell>
        <mxCell id="YXdHH71PyHcni8ouAXbK-3" value="前端设计" style="rounded=0;whiteSpace=wrap;html=1;" vertex="1" parent="1">
          <mxGeometry x="160" y="230" width="120" height="60" as="geometry" />
        </mxCell>
        <mxCell id="YXdHH71PyHcni8ouAXbK-6" value="画板" style="rounded=0;whiteSpace=wrap;html=1;" vertex="1" parent="1">
          <mxGeometry x="40" y="330" width="100" height="50" as="geometry" />
        </mxCell>
        <mxCell id="YXdHH71PyHcni8ouAXbK-8" value="用户上传图片" style="rounded=0;whiteSpace=wrap;html=1;" vertex="1" parent="1">
          <mxGeometry x="170" y="330" width="100" height="50" as="geometry" />
        </mxCell>
        <mxCell id="YXdHH71PyHcni8ouAXbK-9" value="预测概率图" style="rounded=0;whiteSpace=wrap;html=1;" vertex="1" parent="1">
          <mxGeometry x="290" y="330" width="100" height="50" as="geometry" />
        </mxCell>
        <mxCell id="YXdHH71PyHcni8ouAXbK-12" value="模型加载" style="rounded=0;whiteSpace=wrap;html=1;" vertex="1" parent="1">
          <mxGeometry x="440" y="330" width="100" height="50" as="geometry" />
        </mxCell>
        <mxCell id="YXdHH71PyHcni8ouAXbK-13" value="网页路由" style="rounded=0;whiteSpace=wrap;html=1;" vertex="1" parent="1">
          <mxGeometry x="680" y="330" width="100" height="50" as="geometry" />
        </mxCell>
        <mxCell id="YXdHH71PyHcni8ouAXbK-14" value="数字识别" style="rounded=0;whiteSpace=wrap;html=1;" vertex="1" parent="1">
          <mxGeometry x="560" y="330" width="100" height="50" as="geometry" />
        </mxCell>
      </root>
    </mxGraphModel>
  </diagram>
</mxfile>
